<?xml version="1.0" encoding="UTF-8"?>
<svg id="Layer_2" data-name="Layer 2" xmlns="http://www.w3.org/2000/svg" viewBox="0 0 1920 1080">
  <defs>
    <style>
      .cls-1 {
        fill: #9f9f00;
      }
    </style>
  </defs>
  <g id="Layer_1-2" data-name="Layer 1">
    <g>
      <rect width="1920" height="1080"/>
      <g>
        <g>
          <g>
            <rect class="cls-1" x="1466.12" y="252.76" width="1" height="574.49"/>
            <rect class="cls-1" x="1388.12" y="252.76" width="1" height="574.49"/>
            <rect class="cls-1" x="1310.12" y="252.76" width="1" height="574.49"/>
            <rect class="cls-1" x="1232.12" y="252.76" width="1" height="574.49"/>
            <rect class="cls-1" x="1154.12" y="252.76" width="1" height="574.49"/>
            <rect class="cls-1" x="1076.12" y="252.76" width="1" height="574.49"/>
            <rect class="cls-1" x="998.12" y="252.76" width="1" height="574.49"/>
            <rect class="cls-1" x="920.12" y="252.76" width="1" height="574.49"/>
            <rect class="cls-1" x="842.11" y="252.76" width="1" height="574.49"/>
            <rect class="cls-1" x="764.11" y="252.76" width="1" height="574.49"/>
            <rect class="cls-1" x="686.11" y="252.76" width="1" height="574.49"/>
            <rect class="cls-1" x="608.11" y="252.76" width="1" height="574.49"/>
            <rect class="cls-1" x="530.11" y="252.76" width="1" height="574.49"/>
            <rect class="cls-1" x="452.11" y="252.76" width="1" height="574.49"/>
          </g>
          <g>
            <rect class="cls-1" x="452.11" y="252.76" width="1015.01" height="1.05"/>
            <rect class="cls-1" x="452.11" y="334.68" width="1015.01" height="1.05"/>
            <rect class="cls-1" x="452.11" y="416.6" width="1015.01" height="1.05"/>
            <rect class="cls-1" x="452.11" y="498.51" width="1015.01" height="1.05"/>
            <rect class="cls-1" x="452.11" y="580.43" width="1015.01" height="1.05"/>
            <rect class="cls-1" x="452.11" y="662.35" width="1015.01" height="1.05"/>
            <rect class="cls-1" x="452.11" y="744.27" width="1015.01" height="1.05"/>
            <rect class="cls-1" x="452.11" y="826.19" width="1015.01" height="1.05"/>
          </g>
        </g>
        <g>
          <path class="cls-1" d="M1826.73,17.57v1044.86c-.31-.2-.46-.3-.77-.5,0-349.23,0-694.7,0-1043.93.31-.2.46-.23.77-.43Z"/>
          <path class="cls-1" d="M1723.84,83.91c0,323.4.02,589.08.03,912.48-.31-.2-.46-.3-.77-.5,0-323.07-.02-588.4-.03-911.47.31-.2.46-.3.77-.5Z"/>
          <path class="cls-1" d="M1775.75,50.07c0,326.62.02,653.25.03,979.87-.31-.2-.46-.3-.77-.51,0-326.28-.02-652.57-.03-978.85.31-.2.46-.3.77-.51Z"/>
          <path class="cls-1" d="M1827.11,18.86c0,337.46.02,673.63.03,1011.08-.31-.21-.46-.32-.77-.52,0-337.11-.02-674.22-.03-1011.32.31-.21.46.98.77.77Z"/>
          <path class="cls-1" d="M1672.94,118.16c.02,297.24.03,546.68.05,843.92-.31-.2-.46-.3-.77-.5-.02-296.9-.03-546.01-.05-842.91.31-.2.46-.3.77-.5Z"/>
          <path class="cls-1" d="M1621.04,151.42c.03,271.07.05,506.34.08,777.41-.31-.2-.46-.3-.77-.5-.03-270.73-.05-505.67-.08-776.41.31-.2.46-.3.77-.5Z"/>
          <path class="cls-1" d="M1570.13,184.88c.03,240.84.07,469.64.1,710.48-.31-.2-.46-.3-.77-.49-.03-240.51-.07-468.98-.1-709.49.31-.2.46-.3.77-.49Z"/>
          <path class="cls-1" d="M1518.23,217.84c.05,233,1.09,438.3,1.13,644.32-.31-.2-.46-.3-.77-.5-.04-205.68-1.08-410.65-1.13-643.31.31-.2.46-.3.77-.5Z"/>
          <path class="cls-1" d="M1467.49,828.03c-.31-.2-.46-.3-.77-.5-.05-192.24-.1-383.6-.16-575.84.31-.2.46-.3.77-.5.05,192.58.1,384.27.15,576.84Z"/>
          <path class="cls-1" d="M1824.03,17.57s2.25.43,2.31.53c-120.05,78.39-242.42,158.18-362.48,236.57,0-.42,0-.63,0-1.05,120.05-78.68,240.11-157.36,360.16-236.04Z"/>
          <path class="cls-1" d="M1463.88,335.84c131.12-61.44,248.43-116.4,360.14-168.74v1.92c-111.67,52.05-228.97,106.73-360.14,167.88,0-.42,0-.63,0-1.05Z"/>
          <path class="cls-1" d="M1463.91,418.08c120.04-33.81,240.08-67.63,360.12-101.44v1.92c-120.04,33.53-240.08,67.05-360.12,100.58,0-.42,0-.63,0-1.05Z"/>
          <path class="cls-1" d="M1463.93,500.32l360.1-34.13v1.92c-120.03,11.09-240.06,22.18-360.1,33.27,0-.42,0-.63,0-1.05Z"/>
          <path class="cls-1" d="M1463.95,582.56c120.03,11.06,240.05,22.11,360.08,33.17v1.92c-120.03-11.34-240.05-22.69-360.08-34.03,0-.42,0-.63,0-1.05Z"/>
          <path class="cls-1" d="M1463.97,664.8c120.02,33.49,240.04,66.98,360.05,100.47v1.92c-120.02-33.78-240.04-67.56-360.05-101.34,0-.42,0-.63,0-1.05Z"/>
          <path class="cls-1" d="M1463.99,747.04c120.01,55.93,240.02,111.85,360.03,167.78v1.92c-120.01-56.21-240.02-112.43-360.03-168.64,0-.42,0-.63,0-1.05Z"/>
          <path class="cls-1" d="M1466.63,826.86c121.22,79.15,240.49,156.05,359.34,233.65v1.92c-118.86-77.89-238.13-155.08-359.34-234.52,0-.42,0-.63,0-1.05Z"/>
        </g>
        <g>
          <path class="cls-1" d="M93.27,17.57c0,349.56,0,695.3,0,1044.86.31-.2.46-.3.77-.5,0-349.23,0-694.7,0-1043.93-.31-.2-.46-.23-.77-.43Z"/>
          <path class="cls-1" d="M196.16,83.91c0,323.4-.02,589.08-.03,912.48.31-.2.46-.3.77-.5,0-323.07.02-588.4.03-911.47-.31-.2-.46-.3-.77-.5Z"/>
          <path class="cls-1" d="M144.25,50.07c0,326.62-.02,653.25-.03,979.87.31-.2.46-.3.77-.51,0-326.28.02-652.57.03-978.85-.31-.2-.46-.3-.77-.51Z"/>
          <path class="cls-1" d="M92.89,18.86c0,337.46-.02,673.63-.03,1011.08.31-.21.46-.32.77-.52,0-337.11.02-674.22.03-1011.32-.31-.21-.46.98-.77.77Z"/>
          <path class="cls-1" d="M247.06,118.16c-.02,297.24-.03,546.68-.05,843.92.31-.2.46-.3.77-.5.02-296.9.03-546.01.05-842.91-.31-.2-.46-.3-.77-.5Z"/>
          <path class="cls-1" d="M298.96,151.42c-.03,271.07-.05,506.34-.08,777.41.31-.2.46-.3.77-.5.03-270.73.05-505.67.08-776.41-.31-.2-.46-.3-.77-.5Z"/>
          <path class="cls-1" d="M349.87,184.88c-.03,240.84-.07,469.64-.1,710.48.31-.2.46-.3.77-.49.03-240.51.07-468.98.1-709.49-.31-.2-.46-.3-.77-.49Z"/>
          <path class="cls-1" d="M401.77,217.84c-.05,233-1.09,438.3-1.13,644.32.31-.2.46-.3.77-.5.04-205.68,1.08-410.65,1.13-643.31-.31-.2-.46-.3-.77-.5Z"/>
          <path class="cls-1" d="M452.51,828.03c.31-.2.46-.3.77-.5.05-192.24.1-383.6.16-575.84-.31-.2-.46-.3-.77-.5-.05,192.58-.1,384.27-.15,576.84Z"/>
          <path class="cls-1" d="M95.97,17.57s-2.25.43-2.31.53c120.05,78.39,242.42,158.18,362.48,236.57,0-.42,0-.63,0-1.05C336.08,174.93,216.03,96.25,95.97,17.57Z"/>
          <path class="cls-1" d="M456.12,335.84c-131.12-61.44-248.43-116.4-360.14-168.74v1.92c111.67,52.05,228.97,106.73,360.14,167.88,0-.42,0-.63,0-1.05Z"/>
          <path class="cls-1" d="M456.09,418.08c-120.04-33.81-240.08-67.63-360.12-101.44v1.92c120.04,33.53,240.08,67.05,360.12,100.58,0-.42,0-.63,0-1.05Z"/>
          <path class="cls-1" d="M456.07,500.32c-120.03-11.38-240.06-22.76-360.1-34.13v1.92c120.03,11.09,240.06,22.18,360.1,33.27,0-.42,0-.63,0-1.05Z"/>
          <path class="cls-1" d="M456.05,582.56c-120.03,11.06-240.05,22.11-360.08,33.17v1.92c120.03-11.34,240.05-22.69,360.08-34.03,0-.42,0-.63,0-1.05Z"/>
          <path class="cls-1" d="M456.03,664.8c-120.02,33.49-240.04,66.98-360.05,100.47v1.92c120.02-33.78,240.04-67.56,360.05-101.34,0-.42,0-.63,0-1.05Z"/>
          <path class="cls-1" d="M456.01,747.04c-120.01,55.93-240.02,111.85-360.03,167.78v1.92c120.01-56.21,240.02-112.43,360.03-168.64,0-.42,0-.63,0-1.05Z"/>
          <path class="cls-1" d="M453.37,826.86c-121.22,79.15-240.49,156.05-359.34,233.65v1.92c118.86-77.89,238.13-155.08,359.34-234.52,0-.42,0-.63,0-1.05Z"/>
        </g>
        <g>
          <g>
            <path class="cls-1" d="M1389.84,827.24c47.38,42.4,101.19,79.05,151.6,117.85l152.42,117.33h-1.71c-50.69-39.11-101.38-78.22-152.07-117.33-50.29-38.8-103.98-75.46-151.25-117.85h1Z"/>
            <path class="cls-1" d="M1311.78,827.24c38.65,41.57,82.71,78.95,124.07,117.85l124.74,117.33h-1.71l-124.38-117.33c-41.24-38.9-85.18-76.3-123.71-117.85h1Z"/>
            <path class="cls-1" d="M1233.72,827.24c59.88,81.4,129.18,157.31,193.59,235.19h-1.71c-64.18-77.88-133.24-153.8-192.89-235.19h1Z"/>
            <path class="cls-1" d="M1155.66,827.24c42.63,80.06,92.22,157.1,138.39,235.19h-1.71c-45.94-78.08-95.28-155.14-137.68-235.19h1Z"/>
            <path class="cls-1" d="M1077.6,827.24c25.6,79.02,55.36,156.92,83.18,235.19h-1.71c-27.58-78.27-57.09-156.18-82.47-235.19h1Z"/>
            <path class="cls-1" d="M999.53,827.24c8.58,78.47,18.6,156.81,27.96,235.19h-1.71c-9.13-78.38-18.89-156.72-27.25-235.19h1Z"/>
            <path class="cls-1" d="M921.47,827.24c-8.37,78.47-18.13,156.81-27.25,235.19h-1.71c9.36-78.38,19.38-156.72,27.96-235.19h1Z"/>
            <path class="cls-1" d="M843.4,827.24c-25.38,79.01-54.89,156.91-82.47,235.19h-1.71c27.82-78.27,57.57-156.17,83.18-235.19h1Z"/>
            <path class="cls-1" d="M765.34,827.24c-42.4,80.05-91.74,157.1-137.68,235.19h-1.71c46.17-78.08,95.76-155.12,138.39-235.19h1Z"/>
            <path class="cls-1" d="M687.28,827.24c-59.65,81.38-128.7,157.31-192.89,235.19h-1.71c64.42-77.88,133.71-153.79,193.59-235.19h1Z"/>
            <path class="cls-1" d="M609.22,827.24c-38.53,41.56-82.48,78.95-123.71,117.85l-124.38,117.33h-1.71c41.58-39.11,83.16-78.22,124.74-117.33,41.35-38.9,85.42-76.29,124.07-117.85h1Z"/>
            <path class="cls-1" d="M531.16,827.24c-47.27,42.4-100.96,79.05-151.25,117.85-50.69,39.11-101.38,78.22-152.07,117.33h-1.71c50.81-39.11,101.61-78.22,152.42-117.33,50.41-38.8,104.22-75.45,151.6-117.85h1Z"/>
          </g>
          <g>
            <path class="cls-1" d="M1467.89,827.24v.79H452.11v-.79h1015.78Z"/>
            <path class="cls-1" d="M401.71,861.23h1116.57c.26.17.4.26.66.43H401.05c.26-.17.4-.26.66-.43Z"/>
            <path class="cls-1" d="M350.35,894.69h1219.3c.26.17.4.26.66.43H349.69c.26-.17.4-.26.66-.43Z"/>
            <path class="cls-1" d="M298.98,928.15h1322.03c.26.17.4.26.66.43H298.33c.26-.17.4-.26.66-.43Z"/>
            <path class="cls-1" d="M247.62,961.62h1424.77c.26.17.4.26.66.43H246.96c.26-.17.4-.26.66-.43Z"/>
            <path class="cls-1" d="M196.25,995.08h1527.5c.26.17.4.26.66.43H195.59c.26-.17.4-.26.66-.43Z"/>
            <path class="cls-1" d="M144.89,1028.54h1630.22c.26.17.4.26.66.43H144.23c.26-.17.4-.26.66-.43Z"/>
            <path class="cls-1" d="M93.53,1062h1732.95c.26.17.4.26.66.43H92.87c.26-.17.4-.26.66-.43Z"/>
          </g>
        </g>
        <g>
          <g>
            <path class="cls-1" d="M1389.84,252.76c47.38-42.4,101.19-79.05,151.6-117.85,50.81-39.11,101.61-78.22,152.42-117.33h-1.71c-50.69,39.11-101.38,78.22-152.07,117.33-50.29,38.8-103.98,75.46-151.25,117.85h1Z"/>
            <path class="cls-1" d="M1311.78,252.76c38.65-41.57,82.71-78.95,124.07-117.85,41.58-39.11,83.16-78.22,124.74-117.33h-1.71c-41.46,39.11-82.92,78.22-124.38,117.33-41.24,38.9-85.18,76.3-123.71,117.85h1Z"/>
            <path class="cls-1" d="M1233.72,252.76c59.88-81.4,129.18-157.31,193.59-235.19h-1.71c-64.18,77.88-133.24,153.8-192.89,235.19h1Z"/>
            <path class="cls-1" d="M1155.66,252.76c42.63-80.06,92.22-157.1,138.39-235.19h-1.71c-45.94,78.08-95.28,155.14-137.68,235.19h1Z"/>
            <path class="cls-1" d="M1077.6,252.76c25.6-79.02,55.36-156.92,83.18-235.19h-1.71c-27.58,78.27-57.09,156.18-82.47,235.19h1Z"/>
            <path class="cls-1" d="M999.53,252.76c8.58-78.47,18.6-156.81,27.96-235.19h-1.71c-9.13,78.38-18.89,156.72-27.25,235.19h1Z"/>
            <path class="cls-1" d="M921.47,252.76c-8.37-78.47-18.13-156.81-27.25-235.19h-1.71c9.36,78.38,19.38,156.72,27.96,235.19h1Z"/>
            <path class="cls-1" d="M843.4,252.76c-25.38-79.01-54.89-156.91-82.47-235.19h-1.71c27.82,78.27,57.57,156.17,83.18,235.19h1Z"/>
            <path class="cls-1" d="M765.34,252.76c-42.4-80.05-91.74-157.1-137.68-235.19h-1.71c46.17,78.08,95.76,155.12,138.39,235.19h1Z"/>
            <path class="cls-1" d="M687.28,252.76c-59.65-81.38-128.7-157.31-192.89-235.19h-1.71c64.42,77.88,133.71,153.79,193.59,235.19h1Z"/>
            <path class="cls-1" d="M609.22,252.76c-38.53-41.56-82.48-78.95-123.71-117.85-41.46-39.11-82.92-78.22-124.38-117.33h-1.71c41.58,39.11,83.16,78.22,124.74,117.33,41.35,38.9,85.42,76.29,124.07,117.85h1Z"/>
            <path class="cls-1" d="M531.16,252.76c-47.27-42.4-100.96-79.05-151.25-117.85-50.69-39.11-101.38-78.22-152.07-117.33h-1.71c50.81,39.11,101.61,78.22,152.42,117.33,50.41,38.8,104.22,75.45,151.6,117.85h1Z"/>
          </g>
          <g>
            <path class="cls-1" d="M1467.89,252.76v-.79H452.11v.79h1015.78Z"/>
            <path class="cls-1" d="M401.71,218.77h1116.57c.26-.17.4-.26.66-.43H401.05c.26.17.4.26.66.43Z"/>
            <path class="cls-1" d="M350.35,185.31h1219.3c.26-.17.4-.26.66-.43-406.87,0-813.75,0-1220.62,0,.26.17.4.26.66.43Z"/>
            <path class="cls-1" d="M298.98,151.85h1322.03c.26-.17.4-.26.66-.43H298.33c.26.17.4.26.66.43Z"/>
            <path class="cls-1" d="M247.62,118.38h1424.77c.26-.17.4-.26.66-.43H246.96c.26.17.4.26.66.43Z"/>
            <path class="cls-1" d="M196.25,84.92h1527.5c.26-.17.4-.26.66-.43H195.59c.26.17.4.26.66.43Z"/>
            <path class="cls-1" d="M144.89,51.46h1630.22c.26-.17.4-.26.66-.43H144.23c.26.17.4.26.66.43Z"/>
            <path class="cls-1" d="M93.53,18h1732.95c.26-.17.4-.26.66-.43-139.14,0-278.27,0-417.41,0-438.95,0-877.9,0-1316.85,0,.26.17.4.26.66.43Z"/>
          </g>
        </g>
      </g>
    </g>
  </g>
</svg>