<?xml version="1.0" encoding="UTF-8"?>
<svg id="Layer_2" data-name="Layer 2" xmlns="http://www.w3.org/2000/svg" viewBox="0 0 354.06 354.06">
  <defs>
    <style>
      .cls-1 {
        fill: #d91300;
      }

      .cls-2 {
        fill: #ea2b00;
      }

      .cls-3 {
        fill: #ee3d27;
      }

      .cls-4 {
        fill: #d50d00;
      }

      .cls-5 {
        fill: #f83f36;
      }

      .cls-6 {
        fill: #fa4300;
      }

      .cls-7 {
        fill: #fc403c;
      }

      .cls-8 {
        fill: #fa4039;
      }

      .cls-9 {
        fill: #e72700;
      }

      .cls-10 {
        fill: #ed3000;
      }

      .cls-11 {
        fill: #cd0100;
      }

      .cls-12 {
        fill: #f13e2c;
      }

      .cls-13 {
        fill: #fd413e;
      }

      .cls-14 {
        fill: #df3a11;
      }

      .cls-15 {
        fill: #e32200;
      }

      .cls-16 {
        fill: #f43e30;
      }

      .cls-17 {
        fill: #f53c00;
      }

      .cls-18 {
        fill: #d60f00;
      }

      .cls-19 {
        fill: #f83f37;
      }

      .cls-20 {
        fill: #c50c03;
      }

      .cls-21 {
        fill: #ce0300;
      }

      .cls-22 {
        fill: #de1b00;
      }

      .cls-23 {
        fill: #eb2d00;
      }

      .cls-24 {
        fill: #dc1800;
      }

      .cls-25 {
        fill: #ee3d28;
      }

      .cls-26 {
        fill: #da1500;
      }

      .cls-27 {
        fill: #e11f00;
      }

      .cls-28 {
        fill: #ee3100;
      }

      .cls-29 {
        fill: #eb3c24;
      }

      .cls-30 {
        fill: #d40c00;
      }

      .cls-31 {
        fill: #e83c1f;
      }

      .cls-32 {
        fill: #c90501;
      }

      .cls-33 {
        fill: #c80802;
      }

      .cls-34 {
        fill: #b9210a;
      }

      .cls-35 {
        fill: #b32c0d;
      }

      .cls-36 {
        fill: #f43a00;
      }

      .cls-37 {
        fill: #e01d00;
      }

      .cls-38 {
        fill: #eb3c23;
      }

      .cls-39 {
        fill: #be1908;
      }

      .cls-40 {
        fill: #b42b0d;
      }

      .cls-41 {
        fill: #c40f04;
      }

      .cls-42 {
        fill: #cf0400;
      }

      .cls-43 {
        fill: #de3910;
      }

      .cls-44 {
        fill: #e72600;
      }

      .cls-45 {
        fill: #fb4400;
      }

      .cls-46 {
        fill: #f53b00;
      }

      .cls-47 {
        fill: #ba200a;
      }

      .cls-48 {
        fill: #bd1a08;
      }

      .cls-49 {
        fill: #fd4700;
      }

      .cls-50 {
        fill: #ba1f09;
      }

      .cls-51 {
        fill: #f83f00;
      }

      .cls-52 {
        fill: #bf1607;
      }

      .cls-53 {
        fill: #f73f35;
      }

      .cls-54 {
        fill: #f13500;
      }

      .cls-55 {
        fill: #e93c20;
      }

      .cls-56 {
        fill: #d00600;
      }

      .cls-57 {
        fill: #dc390d;
      }

      .cls-58 {
        fill: #f03400;
      }

      .cls-59 {
        fill: #e01e00;
      }

      .cls-60 {
        fill: #d81100;
      }

      .cls-61 {
        fill: #c00;
      }

      .cls-62 {
        fill: #c21205;
      }

      .cls-63 {
        fill: #e23a16;
      }

      .cls-64 {
        fill: #fc403d;
      }

      .cls-65 {
        fill: #e13a15;
      }

      .cls-66 {
        fill: #bb1e09;
      }

      .cls-67 {
        fill: #ed2f00;
      }

      .cls-68 {
        fill: #f33800;
      }

      .cls-69 {
        fill: #b7240b;
      }

      .cls-70 {
        fill: #f73e00;
      }

      .cls-71 {
        fill: #f23e2e;
      }

      .cls-72 {
        fill: #dc1700;
      }

      .cls-73 {
        fill: #d71000;
      }

      .cls-74 {
        fill: #e82800;
      }

      .cls-75 {
        fill: #c50d04;
      }

      .cls-76 {
        fill: #f33900;
      }

      .cls-77 {
        fill: #fc4500;
      }

      .cls-78 {
        fill: #fe4800;
      }

      .cls-79 {
        fill: #cd0200;
      }

      .cls-80 {
        fill: #b6270c;
      }

      .cls-81 {
        fill: #e43b19;
      }

      .cls-82 {
        fill: #e92900;
      }

      .cls-83 {
        fill: #d20900;
      }

      .cls-84 {
        fill: #db1600;
      }

      .cls-85 {
        fill: #d60e00;
      }

      .cls-86 {
        fill: #ec2e00;
      }

      .cls-87 {
        fill: #df1c00;
      }

      .cls-88 {
        fill: #c31005;
      }

      .cls-89 {
        fill: #f63f34;
      }

      .cls-90 {
        fill: #ff4a00;
      }

      .cls-91 {
        fill: #f63d00;
      }

      .cls-92 {
        fill: #ef3300;
      }

      .cls-93 {
        fill: #e33b17;
      }

      .cls-94 {
        fill: #c80702;
      }

      .cls-95 {
        fill: #fe4900;
      }

      .cls-96 {
        fill: #cb0201;
      }

      .cls-97 {
        fill: #f63f33;
      }

      .cls-98 {
        fill: #d10800;
      }

      .cls-99 {
        fill: #bb1d09;
      }

      .cls-100 {
        fill: #fc4600;
      }

      .cls-101 {
        fill: #f03e2b;
      }

      .cls-102 {
        fill: #f94100;
      }

      .cls-103 {
        fill: #f43f31;
      }

      .cls-104 {
        fill: #f94038;
      }

      .cls-105 {
        fill: #e33b18;
      }

      .cls-106 {
        fill: #e73c1e;
      }

      .cls-107 {
        fill: #e52500;
      }

      .cls-108 {
        fill: #d30b00;
      }

      .cls-109 {
        fill: #e53b1a;
      }

      .cls-110 {
        fill: #bc1b08;
      }

      .cls-111 {
        fill: #e42300;
      }

      .cls-112 {
        fill: #ec3d25;
      }

      .cls-113 {
        fill: #e42400;
      }

      .cls-114 {
        fill: #c01606;
      }

      .cls-115 {
        fill: #b7250b;
      }

      .cls-116 {
        fill: #b42a0c;
      }

      .cls-117 {
        fill: #e73b1d;
      }

      .cls-118 {
        fill: #eb2c00;
      }

      .cls-119 {
        fill: #e93c21;
      }

      .cls-120 {
        fill: #b9220a;
      }

      .cls-121 {
        fill: #df3a12;
      }

      .cls-122 {
        fill: #fa4200;
      }

      .cls-123 {
        fill: #e22000;
      }

      .cls-124 {
        fill: #cb0100;
      }

      .cls-125 {
        fill: #be1807;
      }

      .cls-126 {
        fill: #e62500;
      }

      .cls-127 {
        fill: #b8230a;
      }

      .cls-128 {
        fill: #f13600;
      }

      .cls-129 {
        fill: #c60b03;
      }

      .cls-130 {
        fill: #ef3d29;
      }

      .cls-131 {
        fill: #c40e04;
      }

      .cls-132 {
        fill: #ca0301;
      }

      .cls-133 {
        fill: #bc1c08;
      }

      .cls-134 {
        fill: #b5290c;
      }

      .cls-135 {
        fill: #e53b1b;
      }

      .cls-136 {
        fill: #dd390f;
      }

      .cls-137 {
        fill: #c70903;
      }

      .cls-138 {
        fill: #ed3d27;
      }

      .cls-139 {
        fill: #ed3d26;
      }

      .cls-140 {
        fill: #c11305;
      }

      .cls-141 {
        fill: #c01506;
      }

      .cls-142 {
        fill: #fa403a;
      }

      .cls-143 {
        fill: #ef3200;
      }

      .cls-144 {
        fill: #ff4141;
      }

      .cls-145 {
        fill: #b6260b;
      }

      .cls-146 {
        fill: #c60a03;
      }

      .cls-147 {
        fill: #cf0500;
      }

      .cls-148 {
        fill: #f53f32;
      }

      .cls-149 {
        fill: #fe4140;
      }

      .cls-150 {
        fill: #e03a13;
      }

      .cls-151 {
        fill: #f23700;
      }

      .cls-152 {
        fill: #dd390e;
      }

      .cls-153 {
        fill: #d30a00;
      }

      .cls-154 {
        fill: #c90602;
      }

      .cls-155 {
        fill: #f03e2a;
      }

      .cls-156 {
        fill: #f33e2f;
      }

      .cls-157 {
        fill: #e92a00;
      }

      .cls-158 {
        fill: #c11406;
      }

      .cls-159 {
        fill: #fb403b;
      }

      .cls-160 {
        fill: #c31105;
      }

      .cls-161 {
        fill: #bf1707;
      }

      .cls-162 {
        fill: #da1400;
      }

      .cls-163 {
        fill: #f23e2d;
      }

      .cls-164 {
        fill: #fe413f;
      }

      .cls-165 {
        fill: #e63b1c;
      }

      .cls-166 {
        fill: #b5280c;
      }

      .cls-167 {
        fill: #d81200;
      }

      .cls-168 {
        fill: #dd1900;
      }

      .cls-169 {
        fill: #f84000;
      }

      .cls-170 {
        fill: #e22100;
      }

      .cls-171 {
        fill: #d10700;
      }

      .cls-172 {
        fill: #ea3c22;
      }

      .cls-173 {
        fill: #ca0401;
      }

      .cls-174 {
        fill: #de1a00;
      }

      .cls-175 {
        fill: #e13a14;
      }
    </style>
  </defs>
  <g id="Layer_1-2" data-name="Layer 1">
    <g>
      <g>
        <circle class="cls-144" cx="177.03" cy="177.03" r="177.03"/>
        <circle class="cls-149" cx="177.03" cy="177.03" r="176.83"/>
        <circle class="cls-164" cx="177.03" cy="177.03" r="176.64"/>
        <circle class="cls-13" cx="177.03" cy="177.03" r="176.44"/>
        <circle class="cls-64" cx="177.03" cy="177.03" r="176.24"/>
        <circle class="cls-7" cx="177.03" cy="177.03" r="176.04"/>
        <circle class="cls-159" cx="177.03" cy="177.03" r="175.84"/>
        <circle class="cls-142" cx="177.03" cy="177.03" r="175.65"/>
        <circle class="cls-8" cx="177.03" cy="177.03" r="175.45"/>
        <circle class="cls-104" cx="177.03" cy="177.03" r="175.25"/>
        <circle class="cls-19" cx="177.03" cy="177.03" r="175.05"/>
        <circle class="cls-5" cx="177.03" cy="177.03" r="174.85"/>
        <circle class="cls-53" cx="177.03" cy="177.03" r="174.66"/>
        <circle class="cls-89" cx="177.03" cy="177.03" r="174.46"/>
        <circle class="cls-97" cx="177.03" cy="177.03" r="174.26"/>
        <circle class="cls-148" cx="177.03" cy="177.03" r="174.06"/>
        <circle class="cls-103" cx="177.03" cy="177.03" r="173.86"/>
        <circle class="cls-16" cx="177.03" cy="177.03" r="173.67"/>
        <circle class="cls-156" cx="177.03" cy="177.03" r="173.47"/>
        <circle class="cls-71" cx="177.03" cy="177.03" r="173.27"/>
        <circle class="cls-163" cx="177.03" cy="177.03" r="173.07"/>
        <circle class="cls-12" cx="177.03" cy="177.03" r="172.88"/>
        <circle class="cls-101" cx="177.03" cy="177.03" r="172.68"/>
        <circle class="cls-155" cx="177.03" cy="177.03" r="172.48"/>
        <circle class="cls-130" cx="177.03" cy="177.03" r="172.28"/>
        <circle class="cls-25" cx="177.03" cy="177.03" r="172.08"/>
        <circle class="cls-3" cx="177.03" cy="177.03" r="171.89"/>
        <circle class="cls-138" cx="177.03" cy="177.03" r="171.69"/>
        <circle class="cls-139" cx="177.03" cy="177.03" r="171.49"/>
        <circle class="cls-112" cx="177.03" cy="177.03" r="171.29"/>
        <circle class="cls-29" cx="177.03" cy="177.03" r="171.09"/>
        <circle class="cls-38" cx="177.03" cy="177.03" r="170.9"/>
        <circle class="cls-172" cx="177.03" cy="177.03" r="170.7"/>
        <circle class="cls-119" cx="177.03" cy="177.03" r="170.5"/>
        <circle class="cls-55" cx="177.03" cy="177.03" r="170.3"/>
        <circle class="cls-31" cx="177.03" cy="177.03" r="170.1"/>
        <circle class="cls-106" cx="177.03" cy="177.03" r="169.91"/>
        <circle class="cls-117" cx="177.03" cy="177.03" r="169.71"/>
        <circle class="cls-165" cx="177.03" cy="177.03" r="169.51"/>
        <circle class="cls-135" cx="177.03" cy="177.03" r="169.31"/>
        <circle class="cls-109" cx="177.03" cy="177.03" r="169.12"/>
        <circle class="cls-81" cx="177.03" cy="177.03" r="168.92"/>
        <circle class="cls-105" cx="177.03" cy="177.03" r="168.72"/>
        <circle class="cls-93" cx="177.03" cy="177.03" r="168.52"/>
        <circle class="cls-63" cx="177.03" cy="177.03" r="168.32"/>
        <circle class="cls-65" cx="177.03" cy="177.03" r="168.13"/>
        <circle class="cls-175" cx="177.03" cy="177.03" r="167.93"/>
        <circle class="cls-150" cx="177.03" cy="177.03" r="167.73"/>
        <circle class="cls-121" cx="177.03" cy="177.03" r="167.53"/>
        <circle class="cls-14" cx="177.03" cy="177.03" r="167.33"/>
        <circle class="cls-43" cx="177.03" cy="177.03" r="167.14"/>
        <circle class="cls-136" cx="177.03" cy="177.03" r="166.94"/>
        <circle class="cls-152" cx="177.03" cy="177.03" r="166.74"/>
        <circle class="cls-57" cx="177.03" cy="177.03" r="166.54"/>
      </g>
      <g>
        <path class="cls-90" d="M177.03,347.69c-94.1,0-170.66-76.56-170.66-170.66S82.93,6.37,177.03,6.37s170.66,76.56,170.66,170.66-76.56,170.66-170.66,170.66Z"/>
        <path class="cls-95" d="M177.03,6.85c93.84,0,170.18,76.34,170.18,170.18s-76.34,170.18-170.18,170.18S6.85,270.87,6.85,177.03,83.2,6.85,177.03,6.85Z"/>
        <path class="cls-78" d="M177.03,7.34c93.57,0,169.69,76.12,169.69,169.69s-76.12,169.69-169.69,169.69S7.34,270.6,7.34,177.03,83.46,7.34,177.03,7.34Z"/>
        <path class="cls-49" d="M177.03,7.82c93.3,0,169.21,75.91,169.21,169.21s-75.91,169.21-169.21,169.21S7.82,270.33,7.82,177.03,83.73,7.82,177.03,7.82Z"/>
        <path class="cls-100" d="M177.03,8.3c93.04,0,168.73,75.69,168.73,168.73s-75.69,168.73-168.73,168.73S8.3,270.07,8.3,177.03,84,8.3,177.03,8.3Z"/>
        <path class="cls-77" d="M177.03,8.79c92.77,0,168.24,75.47,168.24,168.24s-75.47,168.24-168.24,168.24S8.79,269.8,8.79,177.03,84.26,8.79,177.03,8.79Z"/>
        <path class="cls-45" d="M177.03,9.27c92.5,0,167.76,75.26,167.76,167.76s-75.26,167.76-167.76,167.76S9.27,269.53,9.27,177.03,84.53,9.27,177.03,9.27Z"/>
        <path class="cls-6" d="M177.03,9.76c92.24,0,167.28,75.04,167.28,167.27s-75.04,167.28-167.28,167.28S9.76,269.27,9.76,177.03,84.8,9.76,177.03,9.76Z"/>
        <path class="cls-122" d="M177.03,10.24c91.97,0,166.79,74.82,166.79,166.79s-74.82,166.79-166.79,166.79S10.24,269,10.24,177.03,85.06,10.24,177.03,10.24Z"/>
        <path class="cls-102" d="M177.03,10.72c91.7,0,166.31,74.61,166.31,166.31s-74.61,166.31-166.31,166.31S10.72,268.73,10.72,177.03,85.33,10.72,177.03,10.72Z"/>
        <path class="cls-169" d="M177.03,11.21c91.44,0,165.82,74.39,165.82,165.82s-74.39,165.82-165.82,165.82S11.21,268.47,11.21,177.03,85.6,11.21,177.03,11.21Z"/>
        <path class="cls-51" d="M177.03,11.69c91.17,0,165.34,74.17,165.34,165.34s-74.17,165.34-165.34,165.34S11.69,268.2,11.69,177.03,85.86,11.69,177.03,11.69Z"/>
        <path class="cls-70" d="M177.03,12.17c90.9,0,164.86,73.95,164.86,164.86s-73.95,164.86-164.86,164.86S12.17,267.93,12.17,177.03,86.13,12.17,177.03,12.17Z"/>
        <path class="cls-91" d="M177.03,12.66c90.64,0,164.37,73.74,164.37,164.37s-73.74,164.37-164.37,164.37S12.66,267.67,12.66,177.03,86.4,12.66,177.03,12.66Z"/>
        <path class="cls-17" d="M177.03,13.14c90.37,0,163.89,73.52,163.89,163.89s-73.52,163.89-163.89,163.89S13.14,267.4,13.14,177.03,86.66,13.14,177.03,13.14Z"/>
        <path class="cls-46" d="M177.03,13.63c90.1,0,163.41,73.3,163.41,163.41s-73.3,163.41-163.41,163.41S13.63,267.13,13.63,177.03,86.93,13.63,177.03,13.63Z"/>
        <path class="cls-36" d="M177.03,14.11c89.84,0,162.92,73.09,162.92,162.92s-73.09,162.92-162.92,162.92S14.11,266.87,14.11,177.03,87.2,14.11,177.03,14.11Z"/>
        <path class="cls-76" d="M177.03,14.59c89.57,0,162.44,72.87,162.44,162.44s-72.87,162.44-162.44,162.44S14.59,266.6,14.59,177.03,87.46,14.59,177.03,14.59Z"/>
        <path class="cls-68" d="M177.03,15.08c89.3,0,161.95,72.65,161.95,161.95s-72.65,161.96-161.95,161.96S15.08,266.33,15.08,177.03,87.73,15.08,177.03,15.08Z"/>
        <path class="cls-151" d="M177.03,15.56c89.04,0,161.47,72.44,161.47,161.47s-72.44,161.47-161.47,161.47S15.56,266.07,15.56,177.03,88,15.56,177.03,15.56Z"/>
        <path class="cls-128" d="M177.03,16.04c88.77,0,160.99,72.22,160.99,160.99s-72.22,160.99-160.99,160.99S16.04,265.8,16.04,177.03,88.26,16.04,177.03,16.04Z"/>
        <path class="cls-54" d="M177.03,16.53c88.5,0,160.5,72,160.5,160.5s-72,160.5-160.5,160.5S16.53,265.53,16.53,177.03,88.53,16.53,177.03,16.53Z"/>
        <path class="cls-58" d="M177.03,17.01c88.24,0,160.02,71.78,160.02,160.02s-71.78,160.02-160.02,160.02S17.01,265.27,17.01,177.03,88.8,17.01,177.03,17.01Z"/>
        <path class="cls-92" d="M177.03,17.49c87.97,0,159.54,71.57,159.54,159.54s-71.57,159.54-159.54,159.54S17.49,265,17.49,177.03,89.06,17.49,177.03,17.49Z"/>
        <path class="cls-143" d="M177.03,17.98c87.7,0,159.05,71.35,159.05,159.05s-71.35,159.05-159.05,159.05S17.98,264.73,17.98,177.03,89.33,17.98,177.03,17.98Z"/>
        <path class="cls-28" d="M177.03,18.46c87.44,0,158.57,71.13,158.57,158.57s-71.13,158.57-158.57,158.57S18.46,264.47,18.46,177.03,89.6,18.46,177.03,18.46Z"/>
        <path class="cls-10" d="M177.03,18.95c87.17,0,158.09,70.92,158.09,158.09s-70.92,158.09-158.09,158.09S18.95,264.2,18.95,177.03,89.86,18.95,177.03,18.95Z"/>
        <path class="cls-67" d="M177.03,19.43c86.9,0,157.6,70.7,157.6,157.6s-70.7,157.6-157.6,157.6S19.43,263.93,19.43,177.03,90.13,19.43,177.03,19.43Z"/>
        <path class="cls-86" d="M177.03,19.91c86.64,0,157.12,70.48,157.12,157.12s-70.48,157.12-157.12,157.12S19.91,263.67,19.91,177.03,90.4,19.91,177.03,19.91Z"/>
        <path class="cls-23" d="M177.03,20.4c86.37,0,156.63,70.27,156.63,156.63s-70.27,156.63-156.63,156.63S20.4,263.4,20.4,177.03,90.66,20.4,177.03,20.4Z"/>
        <path class="cls-118" d="M177.03,20.88c86.1,0,156.15,70.05,156.15,156.15s-70.05,156.15-156.15,156.15S20.88,263.13,20.88,177.03,90.93,20.88,177.03,20.88Z"/>
        <path class="cls-2" d="M177.03,21.36c85.84,0,155.67,69.83,155.67,155.67s-69.83,155.67-155.67,155.67S21.36,262.87,21.36,177.03,91.2,21.36,177.03,21.36Z"/>
        <path class="cls-157" d="M177.03,21.85c85.57,0,155.18,69.61,155.18,155.18s-69.61,155.18-155.18,155.18S21.85,262.6,21.85,177.03,91.46,21.85,177.03,21.85Z"/>
        <path class="cls-82" d="M177.03,22.33c85.3,0,154.7,69.4,154.7,154.7s-69.4,154.7-154.7,154.7S22.33,262.33,22.33,177.03,91.73,22.33,177.03,22.33Z"/>
        <path class="cls-74" d="M177.03,22.81c85.04,0,154.22,69.18,154.22,154.22s-69.18,154.22-154.22,154.22S22.82,262.07,22.82,177.03,92,22.81,177.03,22.81Z"/>
        <path class="cls-9" d="M177.03,23.3c84.77,0,153.73,68.96,153.73,153.73s-68.96,153.73-153.73,153.73S23.3,261.8,23.3,177.03,92.26,23.3,177.03,23.3Z"/>
        <path class="cls-44" d="M177.03,23.78c84.5,0,153.25,68.75,153.25,153.25s-68.75,153.25-153.25,153.25S23.78,261.53,23.78,177.03,92.53,23.78,177.03,23.78Z"/>
        <path class="cls-126" d="M177.03,24.27c84.23,0,152.77,68.53,152.77,152.76s-68.53,152.77-152.77,152.77S24.27,261.27,24.27,177.03,92.8,24.27,177.03,24.27Z"/>
        <path class="cls-107" d="M177.03,24.75c83.97,0,152.28,68.31,152.28,152.28s-68.31,152.28-152.28,152.28S24.75,261,24.75,177.03,93.06,24.75,177.03,24.75Z"/>
        <path class="cls-113" d="M177.03,25.23c83.7,0,151.8,68.1,151.8,151.8s-68.1,151.8-151.8,151.8S25.23,260.73,25.23,177.03,93.33,25.23,177.03,25.23Z"/>
        <path class="cls-111" d="M177.03,25.72c83.43,0,151.31,67.88,151.31,151.31s-67.88,151.31-151.31,151.31S25.72,260.47,25.72,177.03,93.6,25.72,177.03,25.72Z"/>
        <path class="cls-15" d="M177.03,26.2c83.17,0,150.83,67.66,150.83,150.83s-67.66,150.83-150.83,150.83S26.2,260.2,26.2,177.03,93.86,26.2,177.03,26.2Z"/>
        <path class="cls-170" d="M177.03,26.68c82.9,0,150.35,67.44,150.35,150.35s-67.45,150.35-150.35,150.35S26.68,259.93,26.68,177.03,94.13,26.68,177.03,26.68Z"/>
        <path class="cls-123" d="M177.03,27.17c82.63,0,149.86,67.23,149.86,149.86s-67.23,149.86-149.86,149.86S27.17,259.67,27.17,177.03,94.4,27.17,177.03,27.17Z"/>
        <path class="cls-27" d="M177.03,27.65c82.37,0,149.38,67.01,149.38,149.38s-67.01,149.38-149.38,149.38S27.65,259.4,27.65,177.03,94.66,27.65,177.03,27.65Z"/>
        <path class="cls-59" d="M177.03,28.14c82.1,0,148.9,66.79,148.9,148.9s-66.79,148.9-148.9,148.9S28.14,259.13,28.14,177.03,94.93,28.14,177.03,28.14Z"/>
        <path class="cls-37" d="M177.03,28.62c81.83,0,148.41,66.58,148.41,148.41s-66.58,148.41-148.41,148.41S28.62,258.87,28.62,177.03,95.2,28.62,177.03,28.62Z"/>
        <path class="cls-87" d="M177.03,29.1c81.57,0,147.93,66.36,147.93,147.93s-66.36,147.93-147.93,147.93S29.1,258.6,29.1,177.03,95.46,29.1,177.03,29.1Z"/>
        <path class="cls-22" d="M177.03,29.59c81.3,0,147.44,66.14,147.44,147.44s-66.14,147.45-147.44,147.45S29.59,258.33,29.59,177.03,95.73,29.59,177.03,29.59Z"/>
        <path class="cls-174" d="M177.03,30.07c81.03,0,146.96,65.93,146.96,146.96s-65.93,146.96-146.96,146.96S30.07,258.07,30.07,177.03,96,30.07,177.03,30.07Z"/>
        <path class="cls-168" d="M177.03,30.55c80.77,0,146.48,65.71,146.48,146.48s-65.71,146.48-146.48,146.48S30.55,257.8,30.55,177.03,96.26,30.55,177.03,30.55Z"/>
        <path class="cls-24" d="M177.03,31.04c80.5,0,145.99,65.49,145.99,145.99s-65.49,145.99-145.99,145.99S31.04,257.53,31.04,177.03,96.53,31.04,177.03,31.04Z"/>
        <path class="cls-72" d="M177.03,31.52c80.23,0,145.51,65.28,145.51,145.51s-65.28,145.51-145.51,145.51S31.52,257.27,31.52,177.03,96.8,31.52,177.03,31.52Z"/>
        <path class="cls-84" d="M177.03,32c79.97,0,145.03,65.06,145.03,145.03s-65.06,145.03-145.03,145.03S32.01,257,32.01,177.03,97.06,32,177.03,32Z"/>
        <path class="cls-26" d="M177.03,32.49c79.7,0,144.54,64.84,144.54,144.54s-64.84,144.54-144.54,144.54S32.49,256.73,32.49,177.03,97.33,32.49,177.03,32.49Z"/>
        <path class="cls-162" d="M177.03,32.97c79.43,0,144.06,64.62,144.06,144.06s-64.62,144.06-144.06,144.06S32.97,256.47,32.97,177.03,97.6,32.97,177.03,32.97Z"/>
        <path class="cls-1" d="M177.03,33.46c79.17,0,143.58,64.41,143.58,143.57s-64.41,143.58-143.58,143.58S33.46,256.2,33.46,177.03,97.86,33.46,177.03,33.46Z"/>
        <path class="cls-167" d="M177.03,33.94c78.9,0,143.09,64.19,143.09,143.09s-64.19,143.09-143.09,143.09S33.94,255.93,33.94,177.03,98.13,33.94,177.03,33.94Z"/>
        <path class="cls-60" d="M177.03,34.42c78.63,0,142.61,63.97,142.61,142.61s-63.97,142.61-142.61,142.61S34.42,255.66,34.42,177.03,98.4,34.42,177.03,34.42Z"/>
        <path class="cls-73" d="M177.03,34.91c78.37,0,142.12,63.76,142.12,142.12s-63.76,142.12-142.12,142.12S34.91,255.4,34.91,177.03,98.66,34.91,177.03,34.91Z"/>
        <path class="cls-18" d="M177.03,35.39c78.1,0,141.64,63.54,141.64,141.64s-63.54,141.64-141.64,141.64S35.39,255.13,35.39,177.03,98.93,35.39,177.03,35.39Z"/>
        <path class="cls-85" d="M177.03,35.87c77.83,0,141.16,63.32,141.16,141.16s-63.32,141.16-141.16,141.16S35.87,254.86,35.87,177.03,99.2,35.87,177.03,35.87Z"/>
        <path class="cls-4" d="M177.03,36.36c77.57,0,140.67,63.11,140.67,140.67s-63.11,140.67-140.67,140.67S36.36,254.6,36.36,177.03,99.46,36.36,177.03,36.36Z"/>
        <path class="cls-30" d="M177.03,36.84c77.3,0,140.19,62.89,140.19,140.19s-62.89,140.19-140.19,140.19S36.84,254.33,36.84,177.03,99.73,36.84,177.03,36.84Z"/>
        <path class="cls-108" d="M177.03,37.33c77.03,0,139.71,62.67,139.71,139.71s-62.67,139.71-139.71,139.71S37.33,254.06,37.33,177.03,100,37.33,177.03,37.33Z"/>
        <path class="cls-153" d="M177.03,37.81c76.77,0,139.22,62.45,139.22,139.22s-62.45,139.22-139.22,139.22S37.81,253.8,37.81,177.03,100.26,37.81,177.03,37.81Z"/>
        <path class="cls-83" d="M177.03,38.29c76.5,0,138.74,62.24,138.74,138.74s-62.24,138.74-138.74,138.74S38.29,253.53,38.29,177.03,100.53,38.29,177.03,38.29Z"/>
        <path class="cls-98" d="M177.03,38.78c76.23,0,138.25,62.02,138.25,138.25s-62.02,138.26-138.25,138.26S38.78,253.26,38.78,177.03,100.8,38.78,177.03,38.78Z"/>
        <path class="cls-171" d="M177.03,39.26c75.97,0,137.77,61.8,137.77,137.77s-61.8,137.77-137.77,137.77S39.26,253,39.26,177.03,101.06,39.26,177.03,39.26Z"/>
        <path class="cls-56" d="M177.03,39.74c75.7,0,137.29,61.59,137.29,137.29s-61.59,137.29-137.29,137.29S39.74,252.73,39.74,177.03,101.33,39.74,177.03,39.74Z"/>
        <path class="cls-147" d="M177.03,40.23c75.43,0,136.8,61.37,136.8,136.8s-61.37,136.8-136.8,136.8S40.23,252.46,40.23,177.03,101.6,40.23,177.03,40.23Z"/>
        <path class="cls-42" d="M177.03,40.71c75.17,0,136.32,61.15,136.32,136.32s-61.15,136.32-136.32,136.32S40.71,252.2,40.71,177.03,101.86,40.71,177.03,40.71Z"/>
        <path class="cls-21" d="M177.03,41.19c74.9,0,135.84,60.94,135.84,135.84s-60.94,135.84-135.84,135.84S41.19,251.93,41.19,177.03,102.13,41.19,177.03,41.19Z"/>
        <path class="cls-79" d="M177.03,41.68c74.63,0,135.35,60.72,135.35,135.35s-60.72,135.35-135.35,135.35S41.68,251.66,41.68,177.03,102.4,41.68,177.03,41.68Z"/>
        <path class="cls-11" d="M177.03,42.16c74.37,0,134.87,60.5,134.87,134.87s-60.5,134.87-134.87,134.87S42.16,251.4,42.16,177.03,102.66,42.16,177.03,42.16Z"/>
        <path class="cls-61" d="M177.03,311.42c-74.1,0-134.38-60.29-134.38-134.39S102.93,42.65,177.03,42.65s134.39,60.28,134.39,134.38-60.28,134.39-134.39,134.39Z"/>
      </g>
      <g>
        <path class="cls-61" d="M177.03,298.86c-67.17,0-121.82-54.65-121.82-121.83s54.65-121.82,121.82-121.82,121.82,54.65,121.82,121.82-54.65,121.83-121.82,121.83Z"/>
        <path class="cls-124" d="M177.03,55.92c66.78,0,121.11,54.33,121.11,121.11s-54.33,121.11-121.11,121.11-121.11-54.33-121.11-121.11,54.33-121.11,121.11-121.11Z"/>
        <path class="cls-96" d="M177.03,56.64c66.39,0,120.4,54.01,120.4,120.4s-54.01,120.4-120.4,120.4-120.4-54.01-120.4-120.4,54.01-120.4,120.4-120.4Z"/>
        <path class="cls-132" d="M177.03,57.35c65.99,0,119.68,53.69,119.68,119.68s-53.69,119.68-119.68,119.68-119.68-53.69-119.68-119.68,53.69-119.68,119.68-119.68Z"/>
        <path class="cls-173" d="M177.03,58.06c65.6,0,118.97,53.37,118.97,118.97s-53.37,118.97-118.97,118.97-118.97-53.37-118.97-118.97,53.37-118.97,118.97-118.97Z"/>
        <path class="cls-32" d="M177.03,58.78c65.2,0,118.25,53.05,118.25,118.25s-53.05,118.25-118.25,118.25-118.25-53.05-118.25-118.25,53.05-118.25,118.25-118.25Z"/>
        <path class="cls-154" d="M177.03,59.49c64.81,0,117.54,52.73,117.54,117.54s-52.73,117.54-117.54,117.54-117.54-52.73-117.54-117.54,52.73-117.54,117.54-117.54Z"/>
        <path class="cls-94" d="M177.03,60.21c64.42,0,116.82,52.41,116.82,116.82s-52.41,116.82-116.82,116.82-116.82-52.41-116.82-116.82,52.41-116.82,116.82-116.82Z"/>
        <path class="cls-33" d="M177.03,60.92c64.02,0,116.11,52.09,116.11,116.11s-52.09,116.11-116.11,116.11-116.11-52.09-116.11-116.11,52.09-116.11,116.11-116.11Z"/>
        <path class="cls-137" d="M177.03,61.64c63.63,0,115.39,51.77,115.39,115.39s-51.77,115.4-115.39,115.4-115.39-51.77-115.39-115.4,51.77-115.39,115.39-115.39Z"/>
        <path class="cls-146" d="M177.03,62.35c63.23,0,114.68,51.45,114.68,114.68s-51.45,114.68-114.68,114.68-114.68-51.45-114.68-114.68,51.45-114.68,114.68-114.68Z"/>
        <path class="cls-129" d="M177.03,63.07c62.84,0,113.97,51.12,113.97,113.97s-51.12,113.97-113.97,113.97-113.97-51.13-113.97-113.97,51.12-113.97,113.97-113.97Z"/>
        <path class="cls-20" d="M177.03,63.78c62.45,0,113.25,50.8,113.25,113.25s-50.8,113.25-113.25,113.25-113.25-50.8-113.25-113.25,50.8-113.25,113.25-113.25Z"/>
        <path class="cls-75" d="M177.03,64.49c62.05,0,112.54,50.48,112.54,112.54s-50.48,112.54-112.54,112.54-112.54-50.48-112.54-112.54,50.48-112.54,112.54-112.54Z"/>
        <path class="cls-131" d="M177.03,65.21c61.66,0,111.82,50.16,111.82,111.82s-50.16,111.82-111.82,111.82-111.82-50.16-111.82-111.82,50.16-111.82,111.82-111.82Z"/>
        <path class="cls-41" d="M177.03,65.92c61.27,0,111.11,49.84,111.11,111.11s-49.84,111.11-111.11,111.11-111.11-49.84-111.11-111.11,49.84-111.11,111.11-111.11Z"/>
        <path class="cls-88" d="M177.03,66.64c60.87,0,110.39,49.52,110.39,110.39s-49.52,110.39-110.39,110.39-110.39-49.52-110.39-110.39,49.52-110.39,110.39-110.39Z"/>
        <path class="cls-160" d="M177.03,67.35c60.48,0,109.68,49.2,109.68,109.68s-49.2,109.68-109.68,109.68-109.68-49.2-109.68-109.68,49.2-109.68,109.68-109.68Z"/>
        <path class="cls-62" d="M177.03,68.07c60.08,0,108.96,48.88,108.96,108.96s-48.88,108.96-108.96,108.96-108.96-48.88-108.96-108.96,48.88-108.96,108.96-108.96Z"/>
        <path class="cls-140" d="M177.03,68.78c59.69,0,108.25,48.56,108.25,108.25s-48.56,108.25-108.25,108.25-108.25-48.56-108.25-108.25,48.56-108.25,108.25-108.25Z"/>
        <path class="cls-158" d="M177.03,69.5c59.3,0,107.54,48.24,107.54,107.54s-48.24,107.54-107.54,107.54-107.54-48.24-107.54-107.54,48.24-107.54,107.54-107.54Z"/>
        <path class="cls-141" d="M177.03,70.21c58.9,0,106.82,47.92,106.82,106.82s-47.92,106.82-106.82,106.82-106.82-47.92-106.82-106.82,47.92-106.82,106.82-106.82Z"/>
        <path class="cls-114" d="M177.03,70.92c58.51,0,106.11,47.6,106.11,106.11s-47.6,106.11-106.11,106.11-106.11-47.6-106.11-106.11,47.6-106.11,106.11-106.11Z"/>
        <path class="cls-52" d="M177.03,71.64c58.11,0,105.39,47.28,105.39,105.39s-47.28,105.39-105.39,105.39-105.39-47.28-105.39-105.39,47.28-105.39,105.39-105.39Z"/>
        <path class="cls-161" d="M177.03,72.35c57.72,0,104.68,46.96,104.68,104.68s-46.96,104.68-104.68,104.68-104.68-46.96-104.68-104.68,46.96-104.68,104.68-104.68Z"/>
        <path class="cls-125" d="M177.03,73.07c57.33,0,103.96,46.64,103.96,103.96s-46.64,103.96-103.96,103.96-103.96-46.64-103.96-103.96,46.64-103.96,103.96-103.96Z"/>
        <path class="cls-39" d="M177.03,73.78c56.93,0,103.25,46.32,103.25,103.25s-46.32,103.25-103.25,103.25-103.25-46.32-103.25-103.25,46.32-103.25,103.25-103.25Z"/>
        <path class="cls-48" d="M177.03,74.5c56.54,0,102.53,46,102.53,102.53s-46,102.53-102.53,102.53-102.53-46-102.53-102.53,46-102.53,102.53-102.53Z"/>
        <path class="cls-110" d="M177.03,75.21c56.14,0,101.82,45.68,101.82,101.82s-45.68,101.82-101.82,101.82-101.82-45.68-101.82-101.82,45.68-101.82,101.82-101.82Z"/>
        <path class="cls-133" d="M177.03,75.93c55.75,0,101.11,45.36,101.11,101.11s-45.36,101.11-101.11,101.11-101.11-45.36-101.11-101.11,45.36-101.11,101.11-101.11Z"/>
        <path class="cls-99" d="M177.03,76.64c55.36,0,100.39,45.03,100.39,100.39s-45.04,100.39-100.39,100.39-100.39-45.04-100.39-100.39,45.04-100.39,100.39-100.39Z"/>
        <path class="cls-66" d="M177.03,77.35c54.96,0,99.68,44.71,99.68,99.68s-44.71,99.68-99.68,99.68-99.68-44.71-99.68-99.68,44.71-99.68,99.68-99.68Z"/>
        <path class="cls-50" d="M177.03,78.07c54.57,0,98.96,44.39,98.96,98.96s-44.39,98.96-98.96,98.96-98.96-44.39-98.96-98.96,44.39-98.96,98.96-98.96Z"/>
        <path class="cls-47" d="M177.03,78.78c54.17,0,98.25,44.07,98.25,98.25s-44.07,98.25-98.25,98.25-98.25-44.07-98.25-98.25,44.07-98.25,98.25-98.25Z"/>
        <path class="cls-34" d="M177.03,79.5c53.78,0,97.53,43.75,97.53,97.53s-43.75,97.53-97.53,97.53-97.53-43.75-97.53-97.53,43.75-97.53,97.53-97.53Z"/>
        <path class="cls-120" d="M177.03,80.21c53.39,0,96.82,43.43,96.82,96.82s-43.43,96.82-96.82,96.82-96.82-43.43-96.82-96.82,43.43-96.82,96.82-96.82Z"/>
        <path class="cls-127" d="M177.03,80.93c52.99,0,96.1,43.11,96.1,96.1s-43.11,96.1-96.1,96.1-96.1-43.11-96.1-96.1,43.11-96.1,96.1-96.1Z"/>
        <path class="cls-69" d="M177.03,81.64c52.6,0,95.39,42.79,95.39,95.39s-42.79,95.39-95.39,95.39-95.39-42.79-95.39-95.39,42.79-95.39,95.39-95.39Z"/>
        <path class="cls-115" d="M177.03,82.36c52.2,0,94.68,42.47,94.68,94.67s-42.47,94.68-94.68,94.68-94.67-42.47-94.67-94.68,42.47-94.67,94.67-94.67Z"/>
        <path class="cls-145" d="M177.03,83.07c51.81,0,93.96,42.15,93.96,93.96s-42.15,93.96-93.96,93.96-93.96-42.15-93.96-93.96,42.15-93.96,93.96-93.96Z"/>
        <path class="cls-80" d="M177.03,83.78c51.42,0,93.25,41.83,93.25,93.25s-41.83,93.25-93.25,93.25-93.25-41.83-93.25-93.25,41.83-93.25,93.25-93.25Z"/>
        <path class="cls-166" d="M177.03,84.5c51.02,0,92.53,41.51,92.53,92.53s-41.51,92.53-92.53,92.53-92.53-41.51-92.53-92.53,41.51-92.53,92.53-92.53Z"/>
        <path class="cls-134" d="M177.03,85.21c50.63,0,91.82,41.19,91.82,91.82s-41.19,91.82-91.82,91.82-91.82-41.19-91.82-91.82,41.19-91.82,91.82-91.82Z"/>
        <path class="cls-116" d="M177.03,85.93c50.23,0,91.1,40.87,91.1,91.1s-40.87,91.1-91.1,91.1-91.1-40.87-91.1-91.1,40.87-91.1,91.1-91.1Z"/>
        <path class="cls-40" d="M177.03,86.64c49.84,0,90.39,40.55,90.39,90.39s-40.55,90.39-90.39,90.39-90.39-40.55-90.39-90.39,40.55-90.39,90.39-90.39Z"/>
        <path class="cls-35" d="M177.03,266.7c-49.45,0-89.67-40.23-89.67-89.67s40.23-89.67,89.67-89.67,89.67,40.23,89.67,89.67-40.23,89.67-89.67,89.67Z"/>
      </g>
    </g>
  </g>
</svg>