<?xml version="1.0" encoding="UTF-8"?>
<svg id="Layer_1" xmlns="http://www.w3.org/2000/svg" version="1.1" viewBox="0 0 100 114.07">
  <!-- Generator: Adobe Illustrator 30.2.1, SVG Export Plug-In . SVG Version: 2.1.1 Build 1)  -->
  <path d="M70,0H30L0,30v54.07l30,30h40l30-30V30L70,0ZM15.7,66.99h-6.64v-19.91h6.64v19.91ZM80.53,29.67c0,1.3-.88,2.44-2.14,2.78l-26.62,7.14v44.97c0,12.51-17.39,20.7-27.51,12.99-10.08-7.68-3.23-23.61,11.07-25.39h0c4.29-.54,8.47.43,11.64,2.83V23.85c0-1.3.88-2.44,2.14-2.78l27.8-7.45c1.85-.5,3.62.94,3.62,2.78v13.27Z"/>
</svg>