<?xml version="1.0" encoding="UTF-8"?>
<svg id="Layer_1" xmlns="http://www.w3.org/2000/svg" version="1.1" viewBox="0 0 100 114.07">
  <!-- Generator: Adobe Illustrator 30.2.1, SVG Export Plug-In . SVG Version: 2.1.1 Build 1)  -->
  <path d="M70,0H30L0,30v54.07l30,30h40l30-30V30L70,0ZM22.51,30.22c.08-.1.17-.19.26-.28,13.6-15.04,36.82-16.2,51.85-2.6.91.82,1.78,1.69,2.6,2.6.48.52.75,1.2.76,1.9h0c0,1.56-1.26,2.8-2.81,2.8-.77,0-1.51-.32-2.03-.89-11.51-12.78-31.2-13.81-43.98-2.3-.81.73-1.57,1.49-2.3,2.3-.97,1.2-2.74,1.38-3.94.41-1.2-.97-1.38-2.74-.41-3.94ZM15.7,66.99h-6.64v-19.91h6.64v19.91ZM77.98,82.22c0,.71-.27,1.39-.76,1.9-13.6,15.04-36.82,16.2-51.85,2.6-.91-.82-1.78-1.69-2.6-2.6-1.13-1.06-1.19-2.83-.13-3.96,1.06-1.13,2.83-1.19,3.96-.13.09.09.18.18.26.28,11.51,12.78,31.2,13.81,43.98,2.3.81-.73,1.57-1.49,2.3-2.3,1.06-1.13,2.83-1.19,3.96-.13.56.53.88,1.26.89,2.03h-.01ZM50,87.81c-17,0-30.78-13.78-30.78-30.78s13.78-30.78,30.78-30.78,30.78,13.78,30.78,30.78-13.78,30.78-30.78,30.78Z"/>
  <path d="M50,31.85c-13.9,0-25.18,11.28-25.18,25.18s11.28,25.18,25.18,25.18,25.18-11.28,25.18-25.18-11.28-25.18-25.18-25.18ZM52.8,71.02c0,1.55-1.25,2.8-2.8,2.8s-2.8-1.25-2.8-2.8v-2.8c0-1.55,1.25-2.8,2.8-2.8s2.8,1.25,2.8,2.8v2.8ZM52.8,59.83c0,1.55-1.25,2.8-2.8,2.8s-2.8-1.25-2.8-2.8v-16.79c0-1.55,1.25-2.8,2.8-2.8s2.8,1.25,2.8,2.8v16.79Z"/>
</svg>